<?xml version="1.0" standalone="no"?>
<!DOCTYPE svg PUBLIC "-//W3C//DTD SVG 20010904//EN"
 "http://www.w3.org/TR/2001/REC-SVG-20010904/DTD/svg10.dtd">
<svg version="1.0" xmlns="http://www.w3.org/2000/svg"
 width="260.000000pt" height="260.000000pt" viewBox="0 0 260.000000 260.000000"
 preserveAspectRatio="xMidYMid meet">
<metadata>
Created by potrace 1.11, written by Peter Selinger 2001-2013
</metadata>
<g transform="translate(0.000000,260.000000) scale(0.100000,-0.100000)"
fill="#000000" stroke="none">
<path d="M1337 2440 c-19 -16 -37 -26 -41 -23 -4 4 -4 0 -1 -9 8 -19 -14 -36
-25 -18 -6 9 -9 10 -15 0 -4 -7 -2 -16 6 -21 18 -11 -16 -49 -45 -49 -16 0
-18 -2 -7 -9 11 -7 8 -17 -17 -49 -18 -22 -32 -44 -32 -49 0 -5 13 -22 30 -38
l29 -28 -5 -351 c-6 -447 -9 -491 -37 -511 -55 -39 -127 2 -127 73 0 21 -7 47
-15 58 -15 19 -16 18 -40 -9 -39 -43 -34 -107 16 -231 53 -132 52 -192 -8
-312 -69 -137 -77 -164 -64 -226 9 -42 21 -63 49 -90 62 -60 96 -69 272 -69
223 0 268 17 319 118 41 83 24 190 -55 343 l-38 74 27 76 c33 93 35 162 6 191
-16 16 -23 18 -35 8 -8 -6 -14 -22 -14 -36 0 -34 -51 -83 -87 -83 -16 0 -38 7
-49 15 -25 19 -52 19 -70 0 -20 -19 -41 -20 -25 -1 10 11 8 15 -6 19 -10 3 3
5 30 6 l47 1 0 86 c0 76 -2 85 -17 82 -10 -2 -17 -11 -17 -21 1 -12 -6 -17
-22 -17 -13 0 -24 5 -24 10 0 6 5 10 10 10 17 0 11 18 -7 23 -14 4 -12 5 5 6
26 1 30 18 5 24 -10 3 -3 5 14 6 18 0 32 -2 30 -6 -1 -5 3 -10 8 -13 10 -5 11
36 6 530 -3 289 -1 302 75 453 l44 87 -25 0 c-13 0 -40 -13 -58 -30z m-90
-152 c-3 -8 -6 -5 -6 6 -1 11 2 17 5 13 3 -3 4 -12 1 -19z m-3 -143 c-4 -8 -8
-15 -10 -15 -2 0 -4 7 -4 15 0 8 4 15 10 15 5 0 7 -7 4 -15z m36 0 c0 -8 -4
-15 -10 -15 -5 0 -10 7 -10 15 0 8 5 15 10 15 6 0 10 -7 10 -15z m-7 -92 c-7
-2 -21 -2 -30 0 -10 3 -4 5 12 5 17 0 24 -2 18 -5z m-8 -73 c-3 -5 -10 -10
-16 -10 -5 0 -9 5 -9 10 0 6 7 10 16 10 8 0 12 -4 9 -10z m0 -30 c3 -5 1 -10
-4 -10 -6 0 -11 5 -11 10 0 6 2 10 4 10 3 0 8 -4 11 -10z m8 -37 c-7 -2 -21
-2 -30 0 -10 3 -4 5 12 5 17 0 24 -2 18 -5z m-13 -57 c0 -3 -4 -8 -10 -11 -5
-3 -10 -1 -10 4 0 6 5 11 10 11 6 0 10 -2 10 -4z m-3 -62 c-3 -3 -12 -4 -19
-1 -8 3 -5 6 6 6 11 1 17 -2 13 -5z m6 -61 c-7 -2 -21 -2 -30 0 -10 3 -4 5 12
5 17 0 24 -2 18 -5z m7 -23 c0 -5 -4 -10 -10 -10 -5 0 -10 5 -10 10 0 6 5 10
10 10 6 0 10 -4 10 -10z m-15 -80 c-3 -5 -1 -10 4 -10 6 0 11 -4 11 -10 0 -17
-14 -11 -28 10 -10 17 -10 20 4 20 8 0 12 -4 9 -10z m8 -47 c-7 -2 -19 -2 -25
0 -7 3 -2 5 12 5 14 0 19 -2 13 -5z m7 -43 c-20 -13 -53 -13 -45 0 3 6 18 10
33 10 21 0 24 -2 12 -10z m16 -67 c1 -23 -34 -37 -58 -22 -9 6 -4 9 15 9 17 0
27 5 27 15 0 8 -7 15 -15 15 -8 0 -15 -4 -15 -10 0 -5 -4 -10 -10 -10 -5 0
-10 7 -10 16 0 11 8 14 33 12 25 -2 32 -8 33 -25z m-220 -184 c24 -27 25 -30
7 -20 -26 13 -50 55 -53 91 -4 45 2 46 9 2 5 -26 18 -54 37 -73z m204 11 c-6
-11 -18 -20 -28 -20 -15 0 -15 2 -2 10 13 9 13 11 0 20 -12 8 -9 10 13 10 25
0 27 -2 17 -20z m-70 -30 c0 -5 -5 -10 -11 -10 -5 0 -7 5 -4 10 3 6 8 10 11
10 2 0 4 -4 4 -10z m57 -8 c10 -7 10 -12 -1 -28 -8 -10 -18 -15 -22 -11 -5 4
-2 12 6 17 13 8 12 10 -3 10 -10 0 -15 5 -12 10 7 12 16 12 32 2z m-122 -12
c3 -5 2 -10 -4 -10 -5 0 -13 5 -16 10 -3 6 -2 10 4 10 5 0 13 -4 16 -10z m133
-97 c-10 -2 -26 -2 -35 0 -10 3 -2 5 17 5 19 0 27 -2 18 -5z m52 -47 c0 -9
-14 -13 -40 -12 -22 0 -40 5 -40 9 0 5 -7 1 -16 -7 -20 -20 -30 -20 -38 0 -10
26 -1 29 68 26 45 -3 66 -8 66 -16z m-94 -295 c-4 -5 3 -7 14 -4 14 4 20 0 20
-11 0 -9 5 -16 11 -16 5 0 7 5 3 12 -5 8 -2 9 10 5 10 -4 24 -7 32 -7 8 0 14
-4 14 -10 0 -5 -10 -10 -23 -10 -13 0 -28 -5 -35 -12 -7 -7 -12 -8 -12 -2 0 5
-15 8 -34 6 -32 -4 -34 -2 -32 27 0 23 6 31 19 31 10 0 16 -4 13 -9z"/>
</g>
</svg>
